<svg xmlns="http://www.w3.org/2000/svg" width="21" height="21" viewBox="0 0 21 21"><g><g><path fill="#fff" d="M18.122 1.395a1.052 1.052 0 1 1 1.644 1.315l-8.42 10.524c-.391.49-1.122.53-1.565.087L5.57 9.11A1.052 1.052 0 1 1 7.06 7.623L10.438 11zm-2.334 10.658a1.053 1.053 0 1 1 2.105 0v5.92A3.026 3.026 0 0 1 14.867 21H3.027A3.026 3.026 0 0 1 0 17.974V6.133a3.026 3.026 0 0 1 3.026-3.026H9.44a1.053 1.053 0 0 1 0 2.105H3.026a.921.921 0 0 0-.92.92v11.842c0 .509.411.92.92.92h11.841a.921.921 0 0 0 .921-.92z"/></g></g></svg>